<?xml version="1.0" encoding="utf-8"?>
<!-- Generator: Adobe Illustrator 16.0.3, SVG Export Plug-In . SVG Version: 6.00 Build 0)  -->
<!DOCTYPE svg PUBLIC "-//W3C//DTD SVG 1.1//EN" "http://www.w3.org/Graphics/SVG/1.1/DTD/svg11.dtd">
<svg version="1.1" id="logo-desjardins.svg" xmlns="http://www.w3.org/2000/svg" xmlns:xlink="http://www.w3.org/1999/xlink"
	 x="0px" y="0px" width="154.875px" height="32px" viewBox="0 0 154.875 32" enable-background="new 0 0 154.875 32"
	 xml:space="preserve">
<g id="group">
	<rect id="carre_vert" fill="#008C53" width="32" height="32"/>
	<path id="icone" fill="#FFFFFF" d="M27.431,9.402V22.6L16,29.197L4.57,22.6V9.402L16,2.803L27.431,9.402 M16,3.98L5.592,9.99v12.02
		L16,28.02l10.409-6.01V9.99L16,3.98 M14.572,9.755l-1.633,0.943v1.886l1.633,0.941l1.021-0.588l-0.613-0.354v-1.886l0.613-0.354
		L14.572,9.755 M17.021,10.227v2.357l4.082,2.357v2.827L18.45,19.3l-1.428-0.823v3.063l-2.45,1.413h2.041l2.45-1.413v-2.121h1.224
		l2.857-1.648v-2.827l-4.082-2.357v-2.357l-2.45-1.414h-2.041L17.021,10.227 M14.98,14.234v2.12l3.47,2.003l1.021-0.59l-2.449-1.414
		v-2.12l0.613-0.355l-1.022-0.59L14.98,14.234 M8.857,15.411v2.12l1.632,0.943l1.021-0.591l-0.613-0.354V15.41l2.654-1.532
		l-1.021-0.59L8.857,15.411 M12.939,18.004v0.944l2.45-1.417l-0.817-0.469L12.939,18.004 M12.939,19.889v1.178l3.265-1.885v-1.178
		L12.939,19.889 M13.756,21.538l0.815,0.472l1.632-0.943v-0.941L13.756,21.538 M12.122,18.477l-1.632,0.94h1.634L12.122,18.477z"/>
	<path id="d_1_" fill="#008C53" d="M44.733,23.24c-0.053-2.223-0.053-4.367-0.053-6.408c0-2.87,0.026-5.583,0.105-8.116
		c0.802-0.025,1.397-0.053,1.733-0.053c4.737,0,6.783,2.016,6.783,7.159c0,5.04-2.305,7.573-6.809,7.573
		C45.975,23.395,45.379,23.344,44.733,23.24 M40.572,24.814c0.542-0.024,1.163-0.051,1.861-0.051c1.188,0,2.636,0.077,4.396,0.077
		c7.065,0,10.63-3.103,10.63-9.252c0-2.946-1.058-5.35-2.893-6.797c-1.705-1.349-3.803-1.635-6.702-1.635
		c-1.838,0-3.597,0.104-5.276,0.104c-0.647,0-1.293-0.026-2.017-0.078c0.259,2.229,0.285,4.711,0.285,7.424c0,0.466,0,0.931,0,1.396
		c0,0.804,0,1.552,0,2.302C40.856,20.707,40.831,22.878,40.572,24.814z"/>
	<path id="e" fill="#008C53" d="M62.583,17.449c0-0.078,0-0.154,0-0.232c0-2.586,0.901-3.932,2.373-3.932
		c1.313,0,2.01,1.19,2.01,3.545c0,0.152-0.023,0.359-0.023,0.619H62.583 M62.583,18.704h7.896c0.026-0.284,0.026-0.563,0.026-0.819
		c0-3.694-1.964-5.716-5.5-5.716c-3.815,0-6.187,2.643-6.187,6.306c0,4.155,2.397,6.664,6.418,6.664c1.755,0,3.229-0.44,4.261-1.168
		l0.568-1.47l-0.258-0.181c-1.034,0.822-2.117,1.207-3.307,1.207C64.155,23.527,62.583,21.73,62.583,18.704z"/>
	<path id="s_1_" fill="#008C53" d="M72.85,21.298c0.568,1.703,1.812,2.658,3.329,2.658c1.236,0,1.93-0.646,1.93-1.729
		c0-1.16-1.106-1.496-3.012-2.297c-2.093-0.877-3.127-1.729-3.127-3.535c0-2.479,1.812-4.194,4.725-4.194
		c1.34,0,2.557,0.356,3.724,1.071c-0.338,0.748-0.597,1.547-0.752,2.426h-0.259c-0.754-1.574-1.762-2.376-3.048-2.376
		c-1.108,0-1.855,0.698-1.855,1.601c0,1.007,0.747,1.344,2.19,1.911c2.713,1.059,4.218,1.65,4.218,3.948
		c0,2.582-1.946,4.391-4.912,4.391c-1.52,0-2.763-0.284-3.85-1.008c0.078-0.517,0.182-1.474,0.335-2.866L72.85,21.298L72.85,21.298z
		"/>
	<path id="j" fill="#008C53" d="M84.917,12.604c0.62,0,1.235-0.025,1.854-0.104c-0.078,1.296-0.104,2.379-0.104,3.307
		c0,6.318,0.129,8.87,0.129,9.464c0,3.814-1.779,5.541-5.957,5.672l-0.26-0.799c2.689-0.154,2.842-2.063,2.842-6.652
		c0-6.395-0.104-9.462-0.281-10.991C83.732,12.578,84.324,12.604,84.917,12.604 M85.07,6.951c1.158,0,2.089,0.929,2.089,2.115
		c0,1.166-0.931,2.104-2.089,2.104c-1.157,0-2.111-0.938-2.111-2.104C82.958,7.88,83.887,6.951,85.07,6.951z"/>
	<path id="a" fill="#008C53" d="M95.684,18.035v2.994c0,1.599-0.675,2.398-1.787,2.398c-1.061,0-1.604-0.748-1.604-2.22
		C92.292,19.402,93.327,18.499,95.684,18.035 M95.787,23.195c0.285,1.244,1.111,1.865,2.33,1.865c0.801,0,1.783-0.183,2.714-0.569
		v-0.648c-0.026,0-0.05,0-0.078,0c-1.522,0-1.705-0.647-1.705-2.479c0-0.155,0-0.312,0-0.491l0.079-4.49c0-0.051,0-0.076,0-0.129
		c0-2.657-1.709-4.121-4.814-4.121c-1.633,0-3.107,0.642-4.607,1.953c0.232,0.595,0.413,1.161,0.57,1.652
		c0.801-1.343,1.732-1.986,2.896-1.986c1.477,0,2.461,0.979,2.461,2.555c0,0.128,0,0.283-0.025,0.438
		c-1.037,0.694-2.486,0.979-4.092,1.522c-1.836,0.617-2.718,1.625-2.718,3.275c0,2.221,1.319,3.596,3.495,3.596
		C93.818,25.139,95.063,24.439,95.787,23.195z"/>
	<path id="r" fill="#008C53" d="M102.223,18.646c0-2.399-0.027-4.439-0.185-6.169c0.593,0.076,1.188,0.102,1.806,0.102
		c0.592,0,1.186-0.025,1.776-0.102c-0.076,1.342-0.128,2.452-0.128,3.305h0.128c0.621-2.376,1.991-3.616,3.981-3.616
		c0.053,0,0.076,0,0.129,0c-0.103,0.62-0.154,1.24-0.154,1.86c0,0.646,0.053,1.29,0.154,1.937c-0.621-0.23-1.187-0.387-1.682-0.387
		c-1.754,0-2.43,1.188-2.43,3.662c0,2.271,0.104,4.152,0.234,5.604c-0.621-0.078-1.263-0.131-1.908-0.131s-1.264,0.053-1.908,0.131
		C102.17,23.003,102.223,20.939,102.223,18.646z"/>
	<path id="d" fill="#008C53" d="M116.925,13.784c1.606,0,2.386,1.655,2.386,4.989c0,3.154-0.908,4.783-2.515,4.783
		c-1.792,0-2.467-1.5-2.467-4.604C114.33,15.439,115.057,13.784,116.925,13.784 M119.334,24.842
		c0.622-0.104,1.218-0.154,1.838-0.154c0.594,0,1.215,0.051,1.809,0.154c-0.155-2.396-0.232-5.603-0.232-9.584
		c0-3.662,0.025-5.378,0.232-8.262c-0.646,0.077-1.291,0.104-1.912,0.104c-0.647,0-1.266-0.026-1.912-0.104
		c0.104,1.74,0.129,1.896,0.129,3.637v3.204c-0.883-1.131-1.996-1.671-3.424-1.671c-3.231,0-5.295,2.419-5.295,6.635
		c0,4.238,1.728,6.375,5.113,6.375c1.738,0,2.903-0.643,3.709-2.084C119.389,23.688,119.389,24.275,119.334,24.842z"/>
	<path id="i" fill="#008C53" d="M125.85,18.684c0-2.213-0.078-4.271-0.207-6.185c0.645,0.079,1.287,0.104,1.936,0.104
		c0.67,0,1.314-0.025,1.936-0.104c-0.131,1.912-0.207,3.971-0.207,6.185c0,2.01,0.076,4.041,0.207,6.158
		c-0.621-0.078-1.266-0.131-1.936-0.131c-0.646,0-1.291,0.053-1.936,0.131C125.771,22.725,125.85,20.691,125.85,18.684
		 M127.68,6.874c1.084,0,1.936,0.876,1.936,1.961s-0.879,1.944-1.959,1.944c-1.086,0-1.936-0.859-1.936-1.944
		S126.57,6.874,127.68,6.874z"/>
	<path id="n" fill="#008C53" d="M132.445,18.682c0-2.214-0.078-4.271-0.209-6.188c0.599,0.078,1.193,0.104,1.789,0.104
		c0.598,0,1.168-0.025,1.736-0.104v1.812c1.061-1.396,2.354-2.069,3.98-2.069c1.293,0,2.354,0.466,3.055,1.268
		c0.775,0.906,0.801,2.115,0.801,3.764c0,0.693-0.024,1.776-0.024,3.217c0,1.494,0.051,2.937,0.181,4.358
		c-0.646-0.079-1.293-0.131-1.941-0.131c-0.646,0-1.266,0.052-1.914,0.131c0.131-1.397,0.207-3.405,0.207-6.006
		c0-3.039-0.179-4.427-2.067-4.427c-1.679,0-2.197,1.388-2.197,4.246c0,1.441,0.054,3.503,0.183,6.187
		c-0.621-0.079-1.271-0.131-1.892-0.131c-0.647,0-1.271,0.052-1.894,0.131C132.367,22.725,132.445,20.689,132.445,18.682z"/>
	<path id="s" fill="#008C53" d="M146.814,21.298c0.57,1.703,1.813,2.658,3.328,2.658c1.239,0,1.935-0.646,1.935-1.729
		c0-1.16-1.104-1.496-3.015-2.297c-2.092-0.877-3.127-1.729-3.127-3.535c0-2.479,1.811-4.194,4.727-4.194
		c1.337,0,2.557,0.356,3.723,1.071c-0.337,0.748-0.596,1.547-0.751,2.426h-0.259c-0.754-1.574-1.762-2.376-3.048-2.376
		c-1.108,0-1.854,0.698-1.854,1.601c0,1.007,0.746,1.344,2.189,1.911c2.713,1.059,4.213,1.65,4.213,3.948
		c0,2.582-1.941,4.391-4.911,4.391c-1.519,0-2.76-0.284-3.846-1.008c0.073-0.517,0.179-1.474,0.335-2.866L146.814,21.298
		L146.814,21.298z"/>
</g>
</svg>
